<?xml version="1.0" encoding="UTF-8" standalone="no"?>
<!DOCTYPE svg PUBLIC "-//W3C//DTD SVG 1.1//EN"
 "http://www.w3.org/Graphics/SVG/1.1/DTD/svg11.dtd">
<!-- Generated by graphviz version 2.40.1 (0)
 -->
<!-- Title: State_Legend Pages: 1 -->
<svg width="1613pt" height="324pt"
 viewBox="0.00 0.00 1613.00 324.00" xmlns="http://www.w3.org/2000/svg" xmlns:xlink="http://www.w3.org/1999/xlink">
<g id="graph0" class="graph" transform="scale(1 1) rotate(0) translate(4 320)">
<title>State_Legend</title>
<polygon fill="#ffffff" stroke="transparent" points="-4,4 -4,-320 1609,-320 1609,4 -4,4"/>
<g id="clust1" class="cluster">
<title>cluster_0</title>
<polygon fill="none" stroke="#000000" points="8,-8 8,-231.5 1207,-231.5 1207,-8 8,-8"/>
<text text-anchor="middle" x="607.5" y="-216.3" font-family="Times,serif" font-size="14.00" fill="#000000">Legend</text>
</g>
<g id="clust2" class="cluster">
<title>cluster_1</title>
<polygon fill="none" stroke="#000000" points="1215,-80 1215,-308 1597,-308 1597,-80 1215,-80"/>
<text text-anchor="middle" x="1406" y="-292.8" font-family="Times,serif" font-size="14.00" fill="#000000">Variant Mapper States</text>
</g>
<!-- A -->
<g id="node1" class="node">
<title>A</title>
<ellipse fill="none" stroke="#000000" cx="996" cy="-182.5" rx="99.3824" ry="18"/>
<text text-anchor="middle" x="996" y="-178.8" font-family="Times,serif" font-size="14.00" fill="#000000">Methylation States</text>
</g>
<!-- M_plus -->
<g id="node2" class="node">
<title>M_plus</title>
<ellipse fill="none" stroke="#000000" cx="892" cy="-34" rx="90.9839" ry="18"/>
<text text-anchor="middle" x="892" y="-30.3" font-family="Times,serif" font-size="14.00" fill="#000000">M+ (Methylated)</text>
</g>
<!-- A&#45;&gt;M_plus -->
<g id="edge1" class="edge">
<title>A&#45;&gt;M_plus</title>
<path fill="none" stroke="#000000" d="M983.4552,-164.5874C965.2618,-138.6094 931.4368,-90.3112 910.4135,-60.2924"/>
<polygon fill="#000000" stroke="#000000" points="913.1927,-58.1594 904.5893,-51.9761 907.459,-62.1749 913.1927,-58.1594"/>
</g>
<!-- M_minus -->
<g id="node3" class="node">
<title>M_minus</title>
<ellipse fill="none" stroke="#000000" cx="1100" cy="-34" rx="98.5829" ry="18"/>
<text text-anchor="middle" x="1100" y="-30.3" font-family="Times,serif" font-size="14.00" fill="#000000">M&#45; (Unmethylated)</text>
</g>
<!-- A&#45;&gt;M_minus -->
<g id="edge2" class="edge">
<title>A&#45;&gt;M_minus</title>
<path fill="none" stroke="#000000" d="M1008.5448,-164.5874C1026.7382,-138.6094 1060.5632,-90.3112 1081.5865,-60.2924"/>
<polygon fill="#000000" stroke="#000000" points="1084.541,-62.1749 1087.4107,-51.9761 1078.8073,-58.1594 1084.541,-62.1749"/>
</g>
<!-- B -->
<g id="node4" class="node">
<title>B</title>
<ellipse fill="none" stroke="#000000" cx="610" cy="-182.5" rx="77.1866" ry="18"/>
<text text-anchor="middle" x="610" y="-178.8" font-family="Times,serif" font-size="14.00" fill="#000000">Variant States</text>
</g>
<!-- V_plus -->
<g id="node5" class="node">
<title>V_plus</title>
<ellipse fill="none" stroke="#000000" cx="516" cy="-34" rx="90.1842" ry="18"/>
<text text-anchor="middle" x="516" y="-30.3" font-family="Times,serif" font-size="14.00" fill="#000000">V+ (Has Variant)</text>
</g>
<!-- B&#45;&gt;V_plus -->
<g id="edge3" class="edge">
<title>B&#45;&gt;V_plus</title>
<path fill="none" stroke="#000000" d="M598.6614,-164.5874C582.288,-138.7209 551.9069,-90.7253 532.8883,-60.6799"/>
<polygon fill="#000000" stroke="#000000" points="535.6847,-58.5536 527.3788,-51.9761 529.77,-62.2976 535.6847,-58.5536"/>
</g>
<!-- V_minus -->
<g id="node6" class="node">
<title>V_minus</title>
<ellipse fill="none" stroke="#000000" cx="704" cy="-34" rx="79.0865" ry="18"/>
<text text-anchor="middle" x="704" y="-30.3" font-family="Times,serif" font-size="14.00" fill="#000000">V&#45; (No Variant)</text>
</g>
<!-- B&#45;&gt;V_minus -->
<g id="edge4" class="edge">
<title>B&#45;&gt;V_minus</title>
<path fill="none" stroke="#000000" d="M621.3386,-164.5874C637.712,-138.7209 668.0931,-90.7253 687.1117,-60.6799"/>
<polygon fill="#000000" stroke="#000000" points="690.23,-62.2976 692.6212,-51.9761 684.3153,-58.5536 690.23,-62.2976"/>
</g>
<!-- C -->
<g id="node7" class="node">
<title>C</title>
<ellipse fill="none" stroke="#000000" cx="214" cy="-182.5" rx="87.9851" ry="18"/>
<text text-anchor="middle" x="214" y="-178.8" font-family="Times,serif" font-size="14.00" fill="#000000">Data Availability</text>
</g>
<!-- X_plus -->
<g id="node8" class="node">
<title>X_plus</title>
<ellipse fill="none" stroke="#000000" cx="112" cy="-34" rx="96.3833" ry="18"/>
<text text-anchor="middle" x="112" y="-30.3" font-family="Times,serif" font-size="14.00" fill="#000000">X+ (Data Present)</text>
</g>
<!-- C&#45;&gt;X_plus -->
<g id="edge5" class="edge">
<title>C&#45;&gt;X_plus</title>
<path fill="none" stroke="#000000" d="M201.6964,-164.5874C183.8529,-138.6094 150.6784,-90.3112 130.0594,-60.2924"/>
<polygon fill="#000000" stroke="#000000" points="132.894,-58.2373 124.3472,-51.9761 127.124,-62.2006 132.894,-58.2373"/>
</g>
<!-- X_minus -->
<g id="node9" class="node">
<title>X_minus</title>
<ellipse fill="none" stroke="#000000" cx="317" cy="-34" rx="90.9839" ry="18"/>
<text text-anchor="middle" x="317" y="-30.3" font-family="Times,serif" font-size="14.00" fill="#000000">X&#45; (Data Missing)</text>
</g>
<!-- C&#45;&gt;X_minus -->
<g id="edge6" class="edge">
<title>C&#45;&gt;X_minus</title>
<path fill="none" stroke="#000000" d="M226.4242,-164.5874C244.4426,-138.6094 277.9424,-90.3112 298.7635,-60.2924"/>
<polygon fill="#000000" stroke="#000000" points="301.7083,-62.1878 304.5317,-51.9761 295.9565,-58.1983 301.7083,-62.1878"/>
</g>
<!-- table -->
<g id="node10" class="node">
<title>table</title>
<text text-anchor="middle" x="1406" y="-245.8" font-family="Times,serif" font-size="14.00" fill="#000000"> &#160;&#160;&#160;&#160;&#160;&#160;&#160;State | Description</text>
<text text-anchor="middle" x="1406" y="-230.8" font-family="Times,serif" font-size="14.00" fill="#000000"> &#160;&#160;&#160;&#160;&#160;&#160;&#160;&#45;&#45;&#45;|&#45;&#45;&#45;</text>
<text text-anchor="middle" x="1406" y="-215.8" font-family="Times,serif" font-size="14.00" fill="#000000"> &#160;&#160;&#160;&#160;&#160;&#160;&#160;M+V+ | Methylated with variant</text>
<text text-anchor="middle" x="1406" y="-200.8" font-family="Times,serif" font-size="14.00" fill="#000000"> &#160;&#160;&#160;&#160;&#160;&#160;&#160;M&#45;V+ | Unmethylated with variant</text>
<text text-anchor="middle" x="1406" y="-185.8" font-family="Times,serif" font-size="14.00" fill="#000000"> &#160;&#160;&#160;&#160;&#160;&#160;&#160;M+V&#45; | Methylated without variant</text>
<text text-anchor="middle" x="1406" y="-170.8" font-family="Times,serif" font-size="14.00" fill="#000000"> &#160;&#160;&#160;&#160;&#160;&#160;&#160;M&#45;V&#45; | Unmethylated without variant</text>
<text text-anchor="middle" x="1406" y="-155.8" font-family="Times,serif" font-size="14.00" fill="#000000"> &#160;&#160;&#160;&#160;&#160;&#160;&#160;X(M&#45;)V+ | No methylation data, has variant</text>
<text text-anchor="middle" x="1406" y="-140.8" font-family="Times,serif" font-size="14.00" fill="#000000"> &#160;&#160;&#160;&#160;&#160;&#160;&#160;X(V&#45;)M+ | No variant data, methylated</text>
<text text-anchor="middle" x="1406" y="-125.8" font-family="Times,serif" font-size="14.00" fill="#000000"> &#160;&#160;&#160;&#160;&#160;&#160;&#160;X(V&#45;)M&#45; | No variant data, unmethylated</text>
<text text-anchor="middle" x="1406" y="-110.8" font-family="Times,serif" font-size="14.00" fill="#000000"> &#160;&#160;&#160;&#160;&#160;&#160;&#160;X(M&#45;)X(V&#45;) | No data for either</text>
<text text-anchor="middle" x="1406" y="-95.8" font-family="Times,serif" font-size="14.00" fill="#000000"> &#160;&#160;&#160;&#160;&#160;&#160;&#160;</text>
</g>
</g>
</svg>
